# xmcd
#
# Track frame offsets:
#	150
#	17488
#	25243
#	35857
#	49493
#	62409
#	71910
#	90840
#	107505
#	122295
#	124326
#	130335
#	147276
#	149032
#	162546
#	166906
#	172972
#	183550
#	184700
#	200957
#	209952
#	226551
#	230307
#
# Disc length: 3398 seconds
#
# Revision: 1
# Processed by: cddbd v1.5.2PL0 Copyright (c) Steve Scherf et al.
# Submitted via: audiograbber 1.83.01
#
DISCID=530d4417
DTITLE=The Hillbenders - Tommy: A Bluegrass Opry
DYEAR=2015
DGENRE=Bluegrass
TTITLE0=Overture
TTITLE1=Captain Walker
TTITLE2=1921
TTITLE3=Amazing Journey
TTITLE4=Sparks
TTITLE5=Eyesight to the Blind (The Hawker)
TTITLE6=Christmas
TTITLE7=Cousin Kevin
TTITLE8=The Acid Queen
TTITLE9=Do You Think It's Alright?
TTITLE10=Fiddle About
TTITLE11=Pinball Wizard
TTITLE12=There's A Doctor
TTITLE13=Go To The Mirror
TTITLE14=Tommy, Can You Hear Me?
TTITLE15=Smash The Mirror
TTITLE16=Sensation
TTITLE17=Miracle Cure
TTITLE18=Sally Simpson
TTITLE19=I'm Free
TTITLE20=Welcome
TTITLE21=Tommy's Holiday Camp
TTITLE22=We're Not Gonna Take It/See Me, Feel Me
EXTD=
EXTT0=
EXTT1=
EXTT2=
EXTT3=
EXTT4=
EXTT5=
EXTT6=
EXTT7=
EXTT8=
EXTT9=
EXTT10=
EXTT11=
EXTT12=
EXTT13=
EXTT14=
EXTT15=
EXTT16=
EXTT17=
EXTT18=
EXTT19=
EXTT20=
EXTT21=
EXTT22=
PLAYORDER=
